<svg width="32" height="32" viewBox="0 0 32 32" fill="none" xmlns="http://www.w3.org/2000/svg">
<path d="M1.81751 2.12891H30.4953V29.8696H1.81751V2.12891Z" fill="#2E001E"/>
<path d="M0.513969 0.833008V31.1663H31.7989V0.833008H0.513969ZM1.81751 2.1293H30.4953V29.87H1.81751V2.1293Z" fill="#FF2BC2"/>
<path d="M23.2346 13.5755C23.0391 13.4847 22.7914 13.4458 22.4786 13.4458C20.8361 13.4458 19.7412 14.7033 19.7412 16.7903C19.7412 19.1755 20.8622 20.1347 22.3222 20.1347C22.635 20.1347 22.9739 20.0958 23.2216 19.9921V13.5755H23.2346ZM17.3948 16.894C17.3948 13.8736 19.3501 11.5144 22.5568 11.5144C22.8305 11.5144 22.9739 11.5144 23.2346 11.5403V8.16994C23.2346 8.09216 23.2998 8.04031 23.365 8.04031H25.4637C25.568 8.04031 25.594 8.0792 25.594 8.14401V19.9921C25.594 20.3421 25.594 20.7829 25.6592 21.2625C25.6592 21.3532 25.6592 21.3662 25.581 21.4051C24.486 21.9236 23.3389 22.1569 22.2439 22.1569C19.4153 22.1569 17.3948 20.4199 17.3948 16.894ZM12.9497 14.794L16.5996 21.8329C16.6648 21.9366 16.6257 22.0403 16.5214 22.0403H14.2533C14.1099 22.0403 14.0447 22.0014 13.9795 21.8718C13.1453 20.1606 12.298 18.3847 11.4246 16.544H11.3985C10.6164 18.281 9.75606 20.1736 8.9218 21.8847C8.85662 21.9884 8.79144 22.0273 8.68716 22.0273H6.52329C6.39293 22.0273 6.3799 21.9236 6.44507 21.8458L10.0168 15.0144L6.56239 8.22179C6.48418 8.11808 6.56239 8.02734 6.65364 8.02734H8.89572C9.02608 8.02734 9.09125 8.05327 9.13036 8.16994C9.95159 9.89401 10.7859 11.5921 11.568 13.3292H11.594C12.3501 11.6181 13.1844 9.89401 13.9795 8.19586C14.0447 8.09216 14.0838 8.02734 14.2142 8.02734H16.3129C16.4171 8.02734 16.4562 8.10512 16.3911 8.22179L12.9497 14.794Z" fill="#FF2BC2"/>
</svg>
