<svg width="87" height="96" viewBox="0 0 87 96" fill="none" xmlns="http://www.w3.org/2000/svg">
<path d="M76.2947 96C74.171 95.7667 72.0473 95.5417 69.9236 95.2946C69.558 95.2529 69.1394 95.214 68.852 95.0196C67.8055 94.317 66.5748 94.3058 65.4222 93.9976C62.7906 93.2921 60.3878 92.0979 58.1972 90.4926C57.3739 89.89 56.5563 89.2651 55.8279 88.5569C53.693 86.4794 51.3321 84.6825 48.9433 82.9134C46.5573 81.1443 44.1489 79.4084 41.7629 77.6393C41.4754 77.4282 41.2382 77.1311 41.0401 76.8311C40.9703 76.7256 41.0401 76.459 41.1322 76.334C41.2299 76.2007 41.4252 76.109 41.5954 76.0646C44.5536 75.2925 47.5117 75.6174 50.4419 76.1979C51.3349 76.3756 52.2 76.8033 53.0205 77.2227C55.5823 78.5308 58.1218 79.8861 60.6641 81.2331C61.4846 81.6664 62.2855 82.1385 63.106 82.5718C63.2427 82.644 63.4855 82.6773 63.5971 82.6051C63.8874 82.419 63.7813 82.1052 63.6808 81.8608C62.5534 79.1224 61.4316 76.384 60.2706 73.6595C59.2213 71.1904 58.1441 68.7325 57.0474 66.2857C53.9777 59.4314 50.2214 52.9464 46.2949 46.5475C40.9368 37.8185 34.5518 29.8838 27.55 22.4406C20.0821 14.5031 11.7743 7.54598 2.36414 1.94695C1.57438 1.47759 0.692521 1.1221 0.100899 0.369453C0.0450828 0.300026 -0.00514147 0.197266 0.000435628 0.116722C0.00602035 0.0695038 0.134385 -0.0027084 0.204148 6.8706e-05C0.569733 0.0139542 0.949265 -0.00548543 1.2953 0.0861665C2.91669 0.513871 4.45715 1.1582 5.98085 1.84975C9.70919 3.5439 13.2143 5.63797 16.6636 7.82648C23.2607 12.0119 29.4895 16.6916 35.3946 21.799C39.6085 25.4429 43.8112 29.1006 47.5535 33.2332C55.4874 42.0011 62.4474 51.4578 67.7636 62.0476C69.0501 64.611 70.278 67.205 71.5422 69.7796C71.7431 70.1906 71.9803 70.5878 72.2175 70.9821C72.2538 71.0432 72.3794 71.0682 72.4659 71.071C72.5189 71.071 72.6166 71.0099 72.625 70.9655C73.0491 68.4104 73.4594 65.8553 73.8808 63.3001C74.0761 62.1142 74.2798 60.9283 74.5059 59.748C74.5812 59.3592 74.8826 59.1314 75.2621 59.0259C75.4408 58.9759 75.6249 58.9315 75.8091 58.9231C78.784 58.7593 81.7588 58.7565 84.7309 58.962C85.2835 59.0009 85.8304 59.1314 86.3802 59.237C86.69 59.2953 86.9858 59.7174 86.9914 60.0757C86.9941 60.3534 87.0109 60.6312 86.9886 60.9061C86.7681 63.5834 86.4081 66.2385 85.8193 68.8603C85.5765 69.9434 85.37 71.0349 85.1104 72.1125C84.477 74.7315 84.3486 77.4227 84.0193 80.0806C83.5756 83.6605 83.1458 87.2404 82.4007 90.7759C82.3253 91.137 82.2891 91.5063 82.25 91.8757C82.2081 92.2673 82.3784 92.5728 82.6212 92.8755C82.8863 93.206 82.8667 93.5838 82.4509 93.7809C81.996 93.9976 81.7477 94.3531 81.5412 94.7752C81.3235 95.2196 80.944 95.4362 80.464 95.5612C79.0965 95.9167 77.704 95.9306 76.2975 96L76.2947 96Z" fill="#383838"/>
</svg>
