<svg width="91" height="182" viewBox="0 0 91 182" fill="none" xmlns="http://www.w3.org/2000/svg">
<g clip-path="url(#clip0_1053_13369)">
<path d="M26.1106 136.08C25.8205 135.45 25.419 134.901 24.7005 134.787C23.8908 134.659 23.1757 134.922 22.5043 135.42C20.5578 136.862 19.2185 138.717 18.247 140.94C16.5434 144.84 14.752 148.71 12.873 152.53C11.4899 155.345 9.93468 158.077 8.39974 160.818C7.08408 163.169 5.64023 165.439 3.94673 167.551C3.17757 168.511 2.48938 169.545 1.83492 170.589C1.17709 171.633 0.677811 172.751 0.306732 173.943C-0.185799 175.526 -0.071106 177.035 0.556366 178.541C0.768898 179.049 1.30191 179.245 1.9395 179.005C2.35444 178.85 2.75925 178.655 3.19106 178.561C3.31588 178.534 3.65324 178.803 3.63975 178.911C3.59251 179.352 3.44408 179.78 3.34625 180.215C3.24842 180.662 3.22143 181.097 3.61613 181.447C4.00408 181.791 4.4089 181.784 4.84071 181.552C5.1342 181.39 5.42432 181.215 5.73468 181.087C6.07878 180.945 6.31493 181.053 6.43637 181.444C6.60167 181.966 7.04022 182.064 7.50577 181.976C7.82962 181.915 8.18721 181.835 8.44697 181.646C11.2841 179.615 14.3911 178.035 17.3732 176.247C21.4181 173.822 25.4831 171.438 29.5077 168.982C32.2908 167.285 35.1111 165.672 38.0494 164.257C41.8985 162.401 45.5858 160.266 49.1313 157.878C50.9901 156.625 52.94 155.5 54.8224 154.278C58.2128 152.078 61.5896 149.859 64.953 147.619C65.4084 147.316 65.7728 146.871 66.1641 146.477C66.2214 146.42 66.2214 146.231 66.1708 146.164C66.0528 146.006 65.8942 145.78 65.739 145.767C65.4152 145.74 65.0643 145.78 64.7573 145.885C57.7337 148.232 50.6528 150.401 43.7776 153.196C39.7294 154.843 35.526 156.103 31.3901 157.528C31.3058 157.558 31.0899 157.477 31.0899 157.447C31.0899 157.285 31.0797 157.063 31.1776 156.975C32.5135 155.776 33.8426 154.571 35.219 153.415C43.0826 146.828 50.032 139.351 56.5462 131.456C60.3414 126.855 63.6542 121.914 66.633 116.761C72.3072 106.954 77.5901 96.9374 82.3501 86.6515C84.9477 81.0404 87.0764 75.2643 88.4865 69.2389C89.2523 65.9619 89.8123 62.6478 90.1935 59.3C90.5511 56.1778 90.8817 53.0624 90.9694 49.9167C91.2865 38.7855 88.7091 28.3615 83.4937 18.5438C81.5169 14.8255 78.9429 11.6158 75.7516 8.881C73.6161 7.05217 71.3964 5.34123 68.9877 3.87952C63.7048 0.673181 57.9564 -0.451731 51.8537 0.157877C48.659 0.477837 45.7747 1.71389 43.1771 3.58313C42.1752 4.30389 41.2643 5.14252 40.7448 6.32132C40.5491 6.76253 40.5323 7.22057 40.792 7.18353C40.9978 7.15321 41.2508 7.17342 41.3925 7.06228C46.3212 3.14866 51.847 2.77818 57.6663 4.39819C64.3761 6.26406 68.9202 10.6862 72.0407 16.7419C73.5959 19.763 74.4797 23.0232 75.1275 26.3171C76.2812 32.164 76.8446 38.0849 76.4431 44.053C75.9135 51.9308 74.2099 59.5728 71.5819 67.0127C70.2359 70.8219 68.6301 74.52 66.8725 78.1574C63.3573 85.4323 59.407 92.4748 55.6253 99.6082C54.4176 101.888 53.1053 104.115 51.965 106.425C48.3858 113.676 44.3005 120.631 39.8947 127.414C37.4523 131.176 35.1111 135.006 32.78 138.842C30.4455 142.682 27.8581 146.346 25.1964 149.963C25.0007 150.229 24.7308 150.445 24.4846 150.674C24.4542 150.704 24.3226 150.684 24.299 150.65C24.2417 150.559 24.1641 150.428 24.1911 150.344C24.8759 148.215 25.5978 146.097 26.2556 143.958C26.5829 142.89 26.8224 141.792 27.0619 140.701C27.3858 139.226 27.1294 137.801 26.566 136.427C26.4985 136.262 26.2287 136.178 26.0532 136.053C25.5 136.98 25.8306 137.99 25.7969 138.421C25.9217 138.013 25.3684 136.973 26.1106 136.09V136.08Z" fill="#383838"/>
</g>
<defs>
<clipPath id="clip0_1053_13369">
<rect width="91" height="182" fill="white" transform="matrix(-1 0 0 1 91 0)"/>
</clipPath>
</defs>
</svg>
