<svg width="21" height="14" viewBox="0 0 21 14" fill="none" xmlns="http://www.w3.org/2000/svg">
<path d="M8.96383 6.40004C8.96383 6.40004 10.8568 6.2562 10.8568 3.99109C10.8568 1.72786 9.57295 0.612194 7.61052 0.612194L0.887741 0.601562V13.1091H7.76687C7.76687 13.1091 11.2064 13.2179 11.2064 9.35681C11.2064 9.35681 11.4591 6.40004 8.96383 6.40004ZM3.38924 2.47769H6.8288C6.8288 2.47769 8.00576 2.49707 8.00576 4.02299C8.00576 5.60456 6.8288 5.60456 6.8288 5.60456H3.38924V2.47769ZM7.14149 11.2329H3.38924V7.48069H7.14149C7.14149 7.48069 9.01762 7.50007 9.01762 9.35681C9.01762 11.2136 7.41165 11.2329 7.14149 11.2329Z" fill="#383838"/>
<path d="M16.5223 3.72852C11.8238 3.72852 11.832 8.41883 11.832 8.41883C11.832 8.41883 11.5193 13.1091 16.5223 13.1091C16.5223 13.1091 20.8999 13.1091 20.8999 9.35689H18.3984C18.3984 9.35689 18.3984 11.233 16.5223 11.233C16.5223 11.233 14.6461 11.233 14.6461 8.73152C14.6461 8.73152 19.6491 8.73152 20.8999 8.73152C20.8999 7.48077 20.8999 3.72852 16.5223 3.72852ZM14.6461 7.48077C14.6461 7.48077 14.6049 5.60464 16.5223 5.60464C18.439 5.60464 18.3984 7.48077 18.3984 7.48077H14.6461Z" fill="#383838"/>
<path d="M19.0239 1.85156H14.0209V3.10231H19.0239V1.85156Z" fill="#383838"/>
</svg>
