<svg width="40" height="40" viewBox="0 0 40 40" fill="none" xmlns="http://www.w3.org/2000/svg">
<circle cx="20" cy="20" r="19.5" transform="rotate(-90 20 20)" fill="#7678ED" fill-opacity="0.2" stroke="#7678ED"/>
<path fill-rule="evenodd" clip-rule="evenodd" d="M14.7046 22.2981C14.4251 22.561 13.985 22.567 13.6979 22.317C13.5425 22.1816 13.4525 21.9879 13.4525 21.7829C13.4525 21.5883 13.5333 21.4031 13.6765 21.2681L19.1289 16.0356C19.2719 15.9012 19.4589 15.8333 19.6432 15.8333C19.8275 15.8333 20.0141 15.9008 20.157 16.0352L25.6091 21.2675C25.9176 21.5581 25.9054 22.041 25.5886 22.3169C25.3014 22.567 24.8612 22.5611 24.5817 22.2981L19.6432 17.5486L14.7046 22.2981Z" fill="#7678ED"/>
</svg>
