<svg width="22" height="22" viewBox="0 0 22 22" fill="none" xmlns="http://www.w3.org/2000/svg">
<path d="M10.7324 0.853516C16.1098 0.853516 20.4606 5.39348 20.4606 10.9962C20.4606 16.5989 16.1098 21.1473 10.7324 21.1473C5.35502 21.1473 1.00422 16.6074 1.00422 11.0047C1.00422 5.40198 5.35502 0.853516 10.7324 0.853516Z" fill="#E74D89"/>
<path d="M10.7332 21.87C4.98105 21.87 0.304344 16.9985 0.304344 11.0047C0.304344 5.0024 4.98105 0.130859 10.7332 0.130859C16.4854 0.130859 21.1621 5.0024 21.1621 10.9962C21.1621 16.99 16.4854 21.87 10.7332 21.87ZM19.5245 12.484C19.223 12.382 16.7706 11.6253 13.976 12.0844C15.1411 15.4171 15.6136 18.1377 15.7032 18.6988C17.7076 17.296 19.1334 15.0685 19.5245 12.484ZM14.2122 19.5575C14.0819 18.7413 13.5604 15.9017 12.3139 12.518C12.2976 12.5265 12.2731 12.535 12.2568 12.535C7.22978 14.3629 5.42917 17.9932 5.26621 18.3332C6.77351 19.5575 8.6719 20.2887 10.7332 20.2887C11.9635 20.2972 13.1449 20.0336 14.2122 19.5575ZM4.11741 17.2195C4.3211 16.8624 6.76537 12.6455 11.3606 11.0897C11.4747 11.0472 11.5969 11.0132 11.7109 10.9792C11.491 10.4521 11.2465 9.92494 10.9858 9.40633C6.53724 10.7921 2.21902 10.7326 1.82794 10.7241C1.82794 10.8176 1.81979 10.9112 1.81979 11.0047C1.82794 13.3937 2.69158 15.5701 4.11741 17.2195ZM2.01533 9.10877C2.41456 9.11727 6.08097 9.13428 10.2525 7.97803C8.77782 5.24045 7.18089 2.94496 6.95276 2.61339C4.45146 3.83765 2.59381 6.23516 2.01533 9.10877ZM8.64746 1.98425C8.89188 2.32433 10.5132 4.61981 11.9717 7.41691C15.1411 6.17565 16.4773 4.30525 16.6402 4.0672C15.0677 2.61339 12.9983 1.7292 10.7332 1.7292C10.0162 1.7292 9.31556 1.82272 8.64746 1.98425ZM17.6261 5.13843C17.4387 5.40198 15.9477 7.39991 12.6561 8.80271C12.8597 9.2448 13.0634 9.6954 13.2508 10.146C13.316 10.3075 13.3812 10.4691 13.4464 10.6221C16.4121 10.231 19.3534 10.8601 19.6467 10.9197C19.6222 8.73469 18.8727 6.71976 17.6261 5.13843Z" fill="#B2215A"/>
</svg>
