<svg width="22" height="32" viewBox="0 0 22 32" fill="none" xmlns="http://www.w3.org/2000/svg">
<path d="M5.81482 31.5559C8.67704 31.5559 11 29.2329 11 26.3707V21.1855H5.81482C2.9526 21.1855 0.629635 23.5085 0.629635 26.3707C0.629635 29.2329 2.9526 31.5559 5.81482 31.5559Z" fill="#0ACF83"/>
<path d="M0.629635 15.9996C0.629635 13.1374 2.9526 10.8145 5.81482 10.8145H11V21.1848H5.81482C2.9526 21.1848 0.629635 18.8618 0.629635 15.9996Z" fill="#A259FF"/>
<path d="M0.629635 5.62952C0.629635 2.7673 2.9526 0.444336 5.81482 0.444336H11V10.8147H5.81482C2.9526 10.8147 0.629635 8.49174 0.629635 5.62952Z" fill="#F24E1E"/>
<path d="M11 0.444336H16.1852C19.0474 0.444336 21.3704 2.7673 21.3704 5.62952C21.3704 8.49174 19.0474 10.8147 16.1852 10.8147H11V0.444336Z" fill="#FF7262"/>
<path d="M21.3704 15.9996C21.3704 18.8618 19.0474 21.1848 16.1852 21.1848C13.323 21.1848 11 18.8618 11 15.9996C11 13.1374 13.323 10.8145 16.1852 10.8145C19.0474 10.8145 21.3704 13.1374 21.3704 15.9996Z" fill="#1ABCFE"/>
</svg>
