<svg width="28" height="32" viewBox="0 0 28 32" fill="none" xmlns="http://www.w3.org/2000/svg">
<path d="M19.1273 30.6803C21.4258 22.4385 20.5987 18.2839 16.5692 17.4857C17.1847 20.2843 17.8771 23.1598 14.9343 25.1024C13.3956 26.1218 12.1742 25.7275 9.44296 23.631C8.18313 26.218 8.60628 28.7954 9.19292 31.5554C5.27879 30.8726 2.19171 29.2474 0.758774 25.4679C-0.722249 22.025 0.0951964 18.0339 2.78797 15.4373C3.73044 14.4756 4.74985 13.6004 5.83657 12.8118C10.2412 9.50358 11.0971 6.29149 8.76977 1.31949C8.66398 1.03098 8.57743 0.742464 8.51973 0.444336C13.4148 1.18485 18.0502 3.15634 21.9932 6.15686C30.5812 13.1773 29.5426 25.8045 20.0602 30.4399C19.7332 30.4591 19.4254 30.536 19.1273 30.6803Z" fill="#EE4854"/>
</svg>
