<svg width="32" height="32" viewBox="0 0 32 32" fill="none" xmlns="http://www.w3.org/2000/svg">
<path d="M28.5885 0.444336H2.97573C1.40941 0.444336 0.139679 1.70701 0.139679 3.26463V28.7352C0.139679 30.2928 1.40941 31.5554 2.97573 31.5554H28.5885C30.1549 31.5554 31.4246 30.2928 31.4246 28.7352V3.26463C31.4246 1.70701 30.1549 0.444336 28.5885 0.444336Z" fill="#DC395F"/>
<path d="M10.5951 10.2324C11.6351 10.2324 12.5063 9.42184 12.5063 8.35944C12.5063 7.29778 11.6351 6.4873 10.5951 6.4873C9.55511 6.4873 8.68414 7.29778 8.68414 8.35944C8.68414 9.42172 9.55511 10.2324 10.5951 10.2324ZM6.63241 20.2609C6.5201 20.7361 6.46376 21.2492 6.46376 21.6677C6.46376 23.317 7.36308 24.4118 9.27427 24.4118C10.8593 24.4118 12.1443 23.4758 13.0695 21.9644L12.5046 24.2191H15.652L17.4509 17.0442C17.9006 15.2276 18.7718 14.2847 20.0929 14.2847C21.1327 14.2847 21.7791 14.9278 21.7791 15.9895C21.7791 16.297 21.751 16.6321 21.6385 16.9956L20.711 20.2935C20.5705 20.7687 20.5145 21.2441 20.5145 21.6909C20.5145 23.2566 21.4417 24.4018 23.381 24.4018C25.0392 24.4018 26.36 23.3402 27.0908 20.7967L25.8543 20.3221C25.2359 22.026 24.7019 22.3341 24.2803 22.3341C23.8587 22.3341 23.6338 22.0548 23.6338 21.4961C23.6338 21.2446 23.6903 20.9654 23.7743 20.6293L24.6739 17.4163C24.8986 16.6619 24.9831 15.9929 24.9831 15.3782C24.9831 12.9746 23.5215 11.7202 21.751 11.7202C20.0929 11.7202 18.4064 13.2076 17.5634 14.773L18.1816 11.9632H13.3759L12.7013 14.438H14.9498L13.5652 19.9505C12.4779 22.3541 10.4807 22.3931 10.2301 22.3374C9.81846 22.245 9.55523 22.0896 9.55523 21.5578C9.55523 21.2509 9.61144 20.8101 9.75198 20.2787L11.86 11.9632H6.5201L5.84552 14.438H8.06565L6.63253 20.2609" fill="white"/>
</svg>
