<svg width="136" height="136" viewBox="0 0 136 136" fill="none" xmlns="http://www.w3.org/2000/svg">
<g clip-path="url(#clip0_1059_8701)">
<path d="M16.3175 48.8439L4.58392 42.9526L5.4131 41.3161L14.8469 41.1446L9.35558 33.4921L10.1535 31.918L21.887 37.8093L21.0892 39.3835L12.2029 34.926L16.8807 41.4875L16.2862 42.6565L8.21351 42.8123L17.0997 47.2698L16.3019 48.8439H16.3175Z" fill="#FCFAF7"/>
<path d="M23.1699 36.018L16.693 23.5807L17.8664 22.2715L31.0392 27.2277L29.772 28.6616L26.5023 27.4303L22.8101 31.5605L24.4215 34.662L23.2012 36.0336L23.1699 36.018ZM22.0279 30.0955L24.9534 26.8225L18.9458 24.4379L22.0279 30.0955Z" fill="#FCFAF7"/>
<path d="M32.8071 25.8268L25.2663 15.1039L28.4109 12.9063C29.4904 12.1582 30.5386 11.7062 31.5868 11.5504C32.635 11.3945 33.6206 11.5504 34.5749 12.0335C35.5136 12.5011 36.3897 13.3116 37.172 14.4337L37.391 14.7454C38.1889 15.8832 38.6582 17.0054 38.799 18.0808C38.9242 19.1562 38.7364 20.1848 38.2358 21.1355C37.7195 22.1018 36.9216 22.9591 35.8109 23.7383L32.8071 25.8268ZM33.3703 23.5669L34.7627 22.585C35.5762 22.0239 36.1707 21.4005 36.5618 20.7147C36.9529 20.029 37.0937 19.2809 36.9999 18.4704C36.906 17.66 36.5149 16.7716 35.8422 15.8208L35.6231 15.5091C34.9817 14.5896 34.2933 13.9506 33.5893 13.6077C32.8853 13.2492 32.15 13.1401 31.399 13.2804C30.6481 13.4207 29.8972 13.7324 29.1149 14.2779L27.5661 15.3689L33.339 23.5825L33.3703 23.5669Z" fill="#FCFAF7"/>
<path d="M43.8523 18.7348L38.8929 6.60919L46.7153 3.44531L47.2941 4.8636L41.0988 7.37289L42.632 11.129L48.2954 8.83793L48.8743 10.2562L43.2109 12.5473L44.8849 16.6463L51.0802 14.137L51.659 15.5553L43.8367 18.7348H43.8523Z" fill="#FCFAF7"/>
<path d="M61.656 13.4348L57.7918 0.436397L59.6692 0.38964L62.6417 10.5982L65.4421 0.233784L67.0222 0.187027L70.4328 10.3956L72.8733 0.0467568L74.6725 0L71.481 13.1854L69.7131 13.2322L66.2556 3.03919L63.4083 13.4036L61.6404 13.4504L61.656 13.4348Z" fill="#FCFAF7"/>
<path d="M77.6137 14.1198L80.1012 1.26172L81.8378 1.58902L79.3503 14.4471L77.6137 14.1198Z" fill="#FCFAF7"/>
<path d="M86.2809 16.3791L90.3173 5.54708L86.0463 3.97294L86.5782 2.53906L96.7786 6.31078L96.2467 7.74465L91.9756 6.15492L87.9393 16.9869L86.2809 16.3791Z" fill="#FCFAF7"/>
<path d="M94.1815 19.621L101.519 8.75781L102.99 9.73971L99.8606 14.3842L105.649 18.265L108.778 13.6205L110.249 14.6024L102.911 25.4656L101.441 24.4837L104.789 19.5275L98.9845 15.6466L95.6365 20.6029L94.1659 19.621H94.1815Z" fill="#FCFAF7"/>
<path d="M109.185 31.6848L119.573 23.6582L120.652 25.0453L111.485 32.1368L115.584 37.4047L114.363 38.3398L109.185 31.6848Z" fill="#FCFAF7"/>
<path d="M117.242 44.3101C116.913 43.6399 116.726 42.9385 116.647 42.1904C116.585 41.4579 116.663 40.7254 116.913 39.9929C117.164 39.2603 117.586 38.5746 118.212 37.9356C118.838 37.2965 119.667 36.7043 120.731 36.2055L121.075 36.0497C122.092 35.5665 123.03 35.286 123.907 35.2237C124.783 35.1613 125.565 35.2548 126.285 35.5198C127.004 35.7847 127.63 36.1744 128.146 36.6887C128.678 37.203 129.101 37.7953 129.429 38.4811C129.758 39.1668 129.961 39.8526 130.024 40.5851C130.102 41.3176 130.024 42.0502 129.773 42.7671C129.539 43.484 129.116 44.1698 128.522 44.8088C127.927 45.4478 127.129 46.0089 126.112 46.4921L125.768 46.6479C124.704 47.1622 123.734 47.4428 122.843 47.5207C121.951 47.5986 121.137 47.5051 120.418 47.2402C119.698 46.9752 119.072 46.5856 118.54 46.0712C118.008 45.5569 117.586 44.9647 117.258 44.2945L117.242 44.3101ZM118.666 43.6243C118.963 44.2477 119.401 44.7465 119.964 45.1361C120.527 45.5257 121.231 45.7284 122.06 45.7439C122.905 45.7439 123.86 45.4946 124.955 44.9802L125.299 44.8244C126.332 44.3257 127.098 43.749 127.583 43.11C128.068 42.4554 128.334 41.8008 128.381 41.115C128.428 40.4292 128.303 39.7902 128.006 39.1668C127.708 38.559 127.286 38.0602 126.723 37.6706C126.159 37.281 125.471 37.0628 124.658 37.0472C123.844 37.016 122.921 37.2498 121.888 37.7485L121.544 37.9044C120.449 38.4343 119.651 39.0265 119.135 39.6811C118.619 40.3357 118.337 41.0215 118.29 41.7073C118.243 42.393 118.368 43.032 118.666 43.6399V43.6243Z" fill="#FCFAF7"/>
<path d="M121.388 55.4999L133.153 47.7383L133.559 49.6086L123.781 55.9051L135.265 57.4637L135.656 59.256L121.763 57.2143L121.388 55.4999Z" fill="#FCFAF7"/>
<path d="M122.858 64.3222L136 64.5404L135.859 72.9567L134.326 72.9255L134.436 66.2704L130.368 66.2081L130.274 72.3021L128.741 72.2709L128.835 66.1769L124.392 66.099L124.282 72.754L122.749 72.7229L122.89 64.3066L122.858 64.3222Z" fill="#FCFAF7"/>
<path d="M127.114 84.2728L129.304 85.0209L128.663 82.8078L129.961 82.4805L130.399 84.756L131.979 83.0727L132.902 84.039L131.166 85.5664L133.419 86.0963L133.043 87.3899L130.853 86.6418L131.494 88.855L130.196 89.1823L129.758 86.9068L128.178 88.59L127.255 87.6237L128.991 86.0963L126.738 85.5664L127.114 84.2728Z" fill="#FCFAF7"/>
<path d="M116.71 93.5918L127.552 100.995L126.504 102.507L117.132 101.4L121.529 109.723L120.527 111.172L109.701 103.769L110.702 102.32L118.9 107.931L115.161 100.808L115.912 99.7325L123.922 100.652L115.724 95.0413L116.726 93.5918H116.71Z" fill="#FCFAF7"/>
<path d="M107.104 106.34L115.631 116.299L112.705 118.793C111.704 119.634 110.687 120.195 109.67 120.429C108.653 120.679 107.636 120.601 106.65 120.227C105.665 119.853 104.726 119.136 103.834 118.091L103.584 117.811C102.677 116.751 102.098 115.691 101.863 114.631C101.628 113.572 101.722 112.543 102.145 111.53C102.567 110.532 103.287 109.597 104.319 108.724L107.104 106.355V106.34ZM106.76 108.647L105.461 109.753C104.71 110.392 104.163 111.062 103.85 111.795C103.521 112.512 103.459 113.275 103.631 114.07C103.803 114.865 104.272 115.707 105.023 116.595L105.274 116.876C106.009 117.733 106.744 118.294 107.48 118.59C108.215 118.871 108.95 118.917 109.685 118.715C110.421 118.512 111.14 118.123 111.86 117.515L113.299 116.283L106.776 108.647H106.76Z" fill="#FCFAF7"/>
<path d="M96.7786 114.43L102.864 126.025L95.3705 129.922L94.6509 128.566L100.58 125.48L98.6872 121.88L93.2585 124.701L92.5388 123.345L97.9676 120.524L95.9024 116.596L89.9731 119.682L89.2534 118.326L96.7473 114.43H96.7786Z" fill="#FCFAF7"/>
<path d="M79.5536 121.412L84.6382 133.99L82.7765 134.208L78.8496 124.327L77.0348 134.909L75.4704 135.096L71.1211 125.262L69.6505 135.798L67.867 136.016L69.7913 122.597L71.5435 122.394L75.9553 132.229L77.8171 121.646L79.5693 121.428L79.5536 121.412Z" fill="#FCFAF7"/>
<path d="M63.5804 122.222L62.3131 135.252L60.5609 135.08L61.8281 122.051L63.5804 122.222Z" fill="#FCFAF7"/>
<path d="M54.8036 120.788L51.8311 131.963L56.2429 133.132L55.8518 134.612L45.3229 131.823L45.714 130.342L50.1258 131.511L53.0983 120.336L54.8036 120.788Z" fill="#FCFAF7"/>
<path d="M46.5901 118.327L40.3322 129.829L38.7834 128.988L41.4586 124.078L35.3259 120.759L32.6506 125.668L31.1018 124.826L37.3597 113.324L38.9086 114.166L36.0456 119.418L42.1783 122.738L45.0257 117.501L46.5745 118.343L46.5901 118.327Z" fill="#FCFAF7"/>
<path d="M30.4917 107.697L20.9171 116.659L19.7124 115.381L28.1762 107.464L23.608 102.616L24.7344 101.572L30.5229 107.713L30.4917 107.697Z" fill="#FCFAF7"/>
<path d="M21.2769 95.8827C21.668 96.5217 21.934 97.2075 22.0748 97.9244C22.2156 98.6414 22.1999 99.3895 22.0122 100.138C21.8401 100.886 21.4646 101.603 20.9171 102.32C20.3695 103.021 19.5873 103.676 18.5703 104.283L18.2418 104.47C17.2718 105.047 16.3644 105.421 15.504 105.561C14.6435 105.702 13.8456 105.686 13.0947 105.483C12.3594 105.281 11.7023 104.954 11.1234 104.502C10.5446 104.034 10.0752 103.489 9.68411 102.849C9.29299 102.21 9.02703 101.525 8.88623 100.808C8.74543 100.091 8.76107 99.3583 8.93316 98.6102C9.10526 97.8621 9.44944 97.1452 9.98136 96.4594C10.5133 95.7736 11.2642 95.1346 12.2186 94.558L12.5471 94.3709C13.5484 93.7631 14.5027 93.389 15.3788 93.2176C16.2549 93.0617 17.0684 93.0773 17.8194 93.2643C18.5703 93.4514 19.2274 93.7787 19.8063 94.2462C20.3851 94.7138 20.8701 95.2593 21.2612 95.8983L21.2769 95.8827ZM19.9314 96.6932C19.5716 96.1009 19.1023 95.6489 18.5078 95.3061C17.9133 94.9788 17.1936 94.8385 16.3644 94.9008C15.5196 94.9632 14.5966 95.3061 13.5484 95.9451L13.2198 96.1321C12.2342 96.7244 11.5302 97.3634 11.1078 98.0647C10.6854 98.7505 10.482 99.4362 10.4976 100.122C10.5133 100.808 10.701 101.431 11.0609 102.023C11.405 102.6 11.89 103.052 12.4845 103.395C13.079 103.738 13.783 103.878 14.5966 103.831C15.4101 103.785 16.3019 103.457 17.2875 102.865L17.616 102.678C18.6486 102.055 19.3995 101.384 19.8532 100.683C20.3069 99.9817 20.5103 99.2804 20.4947 98.5946C20.479 97.9089 20.2913 97.2699 19.9314 96.6932Z" fill="#FCFAF7"/>
<path d="M16.0828 85.1287L5.11584 93.9658L4.53698 92.1423L13.6735 84.9573L2.0964 84.4897L1.53319 82.7441L15.5509 83.4611L16.0828 85.1443V85.1287Z" fill="#FCFAF7"/>
<path d="M13.83 76.51L0.735304 77.6633L0 69.2783L1.53319 69.138L2.12769 75.7619L6.17968 75.4034L5.64776 69.325L7.18095 69.1847L7.71287 75.2631L12.1403 74.8735L11.5458 68.234L13.079 68.0938L13.8143 76.4788L13.83 76.51Z" fill="#FCFAF7"/>
<path d="M7.65029 57.0899L5.39745 56.5444L6.25791 58.6797L4.99068 59.1317L4.3336 56.9185L2.90993 58.742L1.89302 57.8692L3.47314 56.186L1.189 55.8743L1.43932 54.5495L3.69217 55.0794L2.8317 52.9442L4.09893 52.4922L4.75601 54.7053L6.17969 52.8818L7.1966 53.7546L5.61647 55.4379L7.90061 55.7496L7.65029 57.0744V57.0899Z" fill="#FCFAF7"/>
</g>
<defs>
<clipPath id="clip0_1059_8701">
<rect width="136" height="136" fill="white"/>
</clipPath>
</defs>
</svg>
