<svg width="22" height="23" viewBox="0 0 22 23" fill="none" xmlns="http://www.w3.org/2000/svg">
<path d="M0.0618019 1.74141C0.0618019 0.877231 0.785279 0.175781 1.67712 0.175781H20.3028C21.1949 0.175781 21.9181 0.877231 21.9181 1.74141V20.4667C21.9181 21.3311 21.1949 22.0321 20.3028 22.0321H1.67712C0.785364 22.0321 0.0618019 21.3312 0.0618019 20.4669V1.74115V1.74141Z" fill="#006699"/>
<path d="M6.70352 18.4679V8.62809H3.43293V18.4679H6.70386H6.70352ZM5.06891 7.28487C6.20919 7.28487 6.91909 6.52929 6.91909 5.58503C6.89775 4.61926 6.20919 3.88477 5.09059 3.88477C3.97123 3.88477 3.24015 4.61926 3.24015 5.58494C3.24015 6.5292 3.9498 7.28478 5.04748 7.28478H5.06865L5.06891 7.28487ZM8.51383 18.4679H11.7842V12.9735C11.7842 12.6798 11.8055 12.3853 11.8919 12.1756C12.1282 11.5877 12.6664 10.9793 13.5701 10.9793C14.7532 10.9793 15.2268 11.8815 15.2268 13.2044V18.4679H18.497V12.826C18.497 9.8038 16.8838 8.3974 14.732 8.3974C12.9679 8.3974 12.1931 9.38341 11.7626 10.055H11.7844V8.62843H8.514C8.55669 9.55152 8.51374 18.4682 8.51374 18.4682L8.51383 18.4679Z" fill="white"/>
</svg>
