<svg width="33" height="33" viewBox="0 0 33 33" fill="none" xmlns="http://www.w3.org/2000/svg">
<mask id="mask0_1102_8964" style="mask-type:luminance" maskUnits="userSpaceOnUse" x="1" y="1" width="31" height="31">
<path d="M16.2136 31.1608C24.5453 31.1608 31.2994 24.4126 31.2994 16.0883C31.2994 7.76404 24.5453 1.01587 16.2136 1.01587C7.88203 1.01587 1.12793 7.76404 1.12793 16.0883C1.12793 24.4126 7.88203 31.1608 16.2136 31.1608Z" fill="white"/>
</mask>
<g mask="url(#mask0_1102_8964)">
<path d="M12.1661 -0.880844C4.73931 -24.0043 -21.5516 -51.1301 -21.4913 -79.6797C-21.4913 -79.6797 -39.4224 -66.5179 -26.147 -36.9295C-9.93793 -0.806641 4.63255 21.9597 4.22407 36.2345C19.087 25.6699 16.4319 12.3968 12.1661 -0.880844Z" fill="#F7B801"/>
<path d="M-26.147 -36.6466C-11.7204 -4.48895 1.49004 16.5661 3.84341 31.2351C9.26034 22.3957 8.07205 10.6855 3.73665 1.118C0.306391 -6.44605 -6.26634 -16.584 -18.2653 -33.5672C-25.1351 -43.2971 -31.3597 -53.5046 -29.2291 -68.1875C-31.796 -61.1939 -32.5155 -50.8379 -26.147 -36.6466Z" fill="#F18701"/>
<path d="M15.3875 -5.43968C6.90703 -27.413 -20.8368 -53.6994 -21.4913 -79.6797C-21.4913 -79.6797 -32.7939 -60.4611 -13.9762 -34.8565C12.4539 1.11336 17.5042 15.6757 4.22873 36.2299C18.4557 27.191 20.2614 7.17017 15.3922 -5.44432L15.3875 -5.43968Z" fill="#7678ED"/>
<path d="M15.7681 -5.62985C7.28757 -27.6032 -20.8368 -53.6994 -21.4913 -79.6797C-21.4913 -79.6797 -21.5145 -79.8235 -22.3361 -77.8942C-22.3965 -76.54 -22.3965 -75.209 -22.3501 -73.8919C-21.2732 -44.8322 4.77638 -24.4403 12.5467 -4.30811C17.142 7.59218 16.9146 26.0919 4.79494 35.7383C4.72996 35.8403 4.28899 36.1325 4.22401 36.2345C18.451 27.1957 20.6373 6.98464 15.7681 -5.62985Z" fill="#3D348B"/>
<path d="M33.6667 12.5127C42.5789 -10.0821 39.4364 -47.7076 57.5857 -69.7597C57.5857 -69.7597 35.3702 -70.9284 26.8805 -39.6287C16.5154 -1.41887 13.3544 25.4147 3.99194 36.202C22.1876 37.4356 28.5515 25.4843 33.6713 12.5127H33.6667Z" fill="#7678ED"/>
<path d="M26.6995 -39.4107C17.4717 -5.39791 14.3385 19.256 6.86523 32.0931C16.664 28.6798 23.1671 18.8711 25.8779 8.71919C28.0224 0.696007 29.3638 -11.3063 30.8492 -32.046C31.6986 -43.9185 33.3558 -55.7585 44.3149 -65.7712C37.8954 -61.9869 30.7703 -54.4228 26.6995 -39.4153V-39.4107Z" fill="#3D348B"/>
<path d="M39.0511 11.024C46.4223 -11.3435 41.6227 -49.2427 57.5857 -69.7598C57.5857 -69.7598 36.656 -62.0427 34.9803 -30.3209C32.6223 14.2425 27.2982 28.7028 3.99194 36.202C20.7348 38.2147 34.8225 23.8657 39.0511 11.024Z" fill="#F7B801"/>
<path d="M39.4643 11.1167C46.8354 -11.2508 45.921 -50.5969 61.8886 -71.114C61.8886 -71.114 57.66 -69.885 55.8033 -68.9158C54.9028 -67.9047 54.0533 -66.8752 53.2549 -65.8271C35.6627 -42.6618 42.8899 -10.3929 36.1361 10.1011C32.1442 22.2193 20.2381 36.3874 4.74391 36.1787C4.62787 36.2158 4.10335 36.1648 3.9873 36.2019C20.7301 38.2147 35.231 23.9585 39.4643 11.1167Z" fill="#F18701"/>
</g>
</svg>
