<svg width="33" height="28" viewBox="0 0 33 28" fill="none" xmlns="http://www.w3.org/2000/svg">
<path fill-rule="evenodd" clip-rule="evenodd" d="M7.25063 9.98535L16.5563 27.9958L0.915161 9.98535H7.25063Z" fill="#EA6C00"/>
<path fill-rule="evenodd" clip-rule="evenodd" d="M25.8646 9.98535L16.5589 27.9958L32.2001 9.98535H25.8646Z" fill="#EA6C00"/>
<path fill-rule="evenodd" clip-rule="evenodd" d="M7.25031 9.98535H25.8616L16.556 27.9958L7.25031 9.98535Z" fill="#FDAD00"/>
<path fill-rule="evenodd" clip-rule="evenodd" d="M16.556 0.00390625L7.74009 0.925385L7.25031 9.98529L16.556 0.00390625Z" fill="#FDD231"/>
<path fill-rule="evenodd" clip-rule="evenodd" d="M16.556 0.00390625L25.3718 0.925385L25.8616 9.98529L16.556 0.00390625Z" fill="#FDD231"/>
<path fill-rule="evenodd" clip-rule="evenodd" d="M32.2001 9.98569L25.3748 0.925781L25.8646 9.98569H32.2001Z" fill="#FDAD00"/>
<path fill-rule="evenodd" clip-rule="evenodd" d="M0.915161 9.98569L7.74041 0.925781L7.25062 9.98569H0.915161Z" fill="#FDAD00"/>
<path fill-rule="evenodd" clip-rule="evenodd" d="M16.556 0.00390625L7.25031 9.98529H25.8616L16.556 0.00390625Z" fill="#FEEEB7"/>
</svg>
