<svg width="40" height="40" viewBox="0 0 40 40" fill="none" xmlns="http://www.w3.org/2000/svg">
    <circle cx="20" cy="20" r="19" transform="rotate(90 20 20)" fill="white" fill-opacity="0.2" stroke="#7678ED" stroke-width="2" />
    <path fill-rule="evenodd" clip-rule="evenodd" d="M25.2959 17.7019C25.5754 17.439 26.0155 17.433 26.3026 17.683C26.458 17.8184 26.5479 18.0121 26.5479 18.2171C26.5479 18.4117 26.4672 18.5969 26.324 18.7319L20.8715 23.9644C20.7286 24.0988 20.5416 24.1667 20.3573 24.1667C20.1729 24.1667 19.9864 24.0992 19.8435 23.9648L14.3914 18.7325C14.0829 18.4419 14.0951 17.959 14.4119 17.6831C14.6991 17.433 15.1393 17.4389 15.4188 17.7019L20.3573 22.4514L25.2959 17.7019Z" fill="#7678ED" />
  </svg>